<?xml version="1.0" encoding="UTF-8" standalone="no"?>
<!DOCTYPE svg PUBLIC "-//W3C//DTD SVG 1.0//EN"
"http://www.w3.org/TR/2001/REC-SVG-20010904/DTD/svg10.dtd">
<!-- Created with Sodipodi ("http://www.sodipodi.com/") -->
<svg
   xmlns="http://www.w3.org/2000/svg"
   xmlns:xlink="http://www.w3.org/1999/xlink"
   version="1.0"
   x="0"
   y="0"
   width="800"
   height="600"
   id="svg602"
   xml:space="preserve"><defs
   id="defs604" /><rect
   width="800"
   height="600"
   x="0"
   y="0"
   style="font-size:12;fill:#ffffff;fill-rule:evenodd;stroke-width:0;"
   id="rectwhite" /><rect
   width="100"
   height="100"
   x="0"
   y="0"
   style="font-size:12;fill-rule:evenodd;"
   id="rectblack01" /><rect
   width="100"
   height="100"
   x="200"
   y="0"
   style="font-size:12;fill-rule:evenodd;"
   id="rectblack02" /><rect
   width="100"
   height="100"
   x="400"
   y="0"
   style="font-size:12;fill-rule:evenodd;"
   id="rectblack03" /><rect
   width="100"
   height="100"
   x="600"
   y="0"
   style="font-size:12;fill-rule:evenodd;"
   id="rectblack04" /><rect
   width="100"
   height="100"
   x="100"
   y="100"
   style="font-size:12;fill-rule:evenodd;"
   id="rectblack05" /><rect
   width="100"
   height="100"
   x="300"
   y="100"
   style="font-size:12;fill-rule:evenodd;"
   id="rectblack06" /><rect
   width="100"
   height="100"
   x="500"
   y="100"
   style="font-size:12;fill-rule:evenodd;"
   id="rectblack07" /><rect
   width="100"
   height="100"
   x="700"
   y="100"
   style="font-size:12;fill-rule:evenodd;"
   id="rectblack08" /><rect
   width="100"
   height="100"
   x="0"
   y="200"
   style="font-size:12;fill-rule:evenodd;"
   id="rectblack09" /><rect
   width="100"
   height="100"
   x="200"
   y="200"
   style="font-size:12;fill-rule:evenodd;"
   id="rectblack10" /><rect
   width="100"
   height="100"
   x="400"
   y="200"
   style="font-size:12;fill-rule:evenodd;"
   id="rectblack11" /><rect
   width="100"
   height="100"
   x="600"
   y="200"
   style="font-size:12;fill-rule:evenodd;"
   id="rectblack12" /><rect
   width="100"
   height="100"
   x="100"
   y="300"
   style="font-size:12;fill-rule:evenodd;"
   id="rectblack13" /><rect
   width="100"
   height="100"
   x="300"
   y="300"
   style="font-size:12;fill-rule:evenodd;"
   id="rectblack14" /><rect
   width="100"
   height="100"
   x="500"
   y="300"
   style="font-size:12;fill-rule:evenodd;"
   id="rectblack15" /><rect
   width="100"
   height="100"
   x="700"
   y="300"
   style="font-size:12;fill-rule:evenodd;"
   id="rectblack16" /><rect
   width="100"
   height="100"
   x="0"
   y="400"
   style="font-size:12;fill-rule:evenodd;"
   id="rectblack17" /><rect
   width="100"
   height="100"
   x="200"
   y="400"
   style="font-size:12;fill-rule:evenodd;"
   id="rectblack18" /><rect
   width="100"
   height="100"
   x="400"
   y="400"
   style="font-size:12;fill-rule:evenodd;"
   id="rectblack19" /><rect
   width="100"
   height="100"
   x="600"
   y="400"
   style="font-size:12;fill-rule:evenodd;"
   id="rectblack20" /><rect
   width="100"
   height="100"
   x="100"
   y="500"
   style="font-size:12;fill-rule:evenodd;"
   id="rectblack21" /><rect
   width="100"
   height="100"
   x="300"
   y="500"
   style="font-size:12;fill-rule:evenodd;"
   id="rectblack22" /><rect
   width="100"
   height="100"
   x="500"
   y="500"
   style="font-size:12;fill-rule:evenodd;"
   id="rectblack23" /><rect
   width="100"
   height="100"
   x="700"
   y="500"
   style="font-size:12;fill-rule:evenodd;"
   id="rectblack24" /><rect
   width="800"
   height="600"
   x="0"
   y="0"
   style="font-size:12;fill:none;fill-rule:evenodd;stroke:#000000;stroke-width:1.25;"
   id="rectblackoutline" /></svg>
